<mxfile host="Electron" modified="2023-10-31T09:13:32.695Z" agent="Mozilla/5.0 (Macintosh; Intel Mac OS X 10_15_7) AppleWebKit/537.36 (KHTML, like Gecko) draw.io/21.6.8 Chrome/114.0.5735.289 Electron/25.5.0 Safari/537.36" etag="DXiX7Sobccg0qSoDabdi" version="21.6.8" type="device" pages="2">
  <diagram name="同一主机" id="I_QO-JGNO7gpHCy7S_7z">
    <mxGraphModel dx="1271" dy="840" grid="1" gridSize="10" guides="1" tooltips="1" connect="1" arrows="1" fold="1" page="1" pageScale="1" pageWidth="3300" pageHeight="4681" math="0" shadow="0">
      <root>
        <mxCell id="0" />
        <mxCell id="1" parent="0" />
        <mxCell id="EJihXNTQah2JkNm5jHnU-65" value="主机" style="rounded=1;whiteSpace=wrap;html=1;verticalAlign=top;" vertex="1" parent="1">
          <mxGeometry x="290" y="320" width="650" height="300" as="geometry" />
        </mxCell>
        <mxCell id="EJihXNTQah2JkNm5jHnU-95" value="容器network namespace" style="rounded=0;whiteSpace=wrap;html=1;fillColor=none;dashed=1;dashPattern=8 8;strokeColor=#3333FF;verticalAlign=top;align=right;fontColor=#0000FF;" vertex="1" parent="1">
          <mxGeometry x="690" y="490" width="230" height="100" as="geometry" />
        </mxCell>
        <mxCell id="EJihXNTQah2JkNm5jHnU-94" value="容器 network namespace" style="rounded=0;whiteSpace=wrap;html=1;fillColor=none;dashed=1;dashPattern=8 8;strokeColor=#3333FF;verticalAlign=top;align=left;fontColor=#3333FF;" vertex="1" parent="1">
          <mxGeometry x="310" y="490" width="230" height="100" as="geometry" />
        </mxCell>
        <mxCell id="EJihXNTQah2JkNm5jHnU-54" value="虚拟交换机&lt;br&gt;网桥&lt;br&gt;由docker创建" style="text;html=1;strokeColor=none;fillColor=none;align=left;verticalAlign=middle;whiteSpace=wrap;rounded=0;fontSize=10;labelBorderColor=none;" vertex="1" parent="1">
          <mxGeometry x="660" y="435" width="100" height="30" as="geometry" />
        </mxCell>
        <mxCell id="EJihXNTQah2JkNm5jHnU-6" value="容器" style="rounded=1;whiteSpace=wrap;html=1;verticalAlign=middle;" vertex="1" parent="1">
          <mxGeometry x="330" y="520" width="180" height="60" as="geometry" />
        </mxCell>
        <mxCell id="EJihXNTQah2JkNm5jHnU-12" value="容器" style="rounded=1;whiteSpace=wrap;html=1;verticalAlign=middle;" vertex="1" parent="1">
          <mxGeometry x="720" y="520" width="180" height="60" as="geometry" />
        </mxCell>
        <mxCell id="EJihXNTQah2JkNm5jHnU-55" value="docker0" style="rounded=0;whiteSpace=wrap;html=1;" vertex="1" parent="1">
          <mxGeometry x="520" y="370" width="180" height="60" as="geometry" />
        </mxCell>
        <mxCell id="EJihXNTQah2JkNm5jHnU-56" value="" style="endArrow=none;html=1;rounded=0;entryX=0.5;entryY=0;entryDx=0;entryDy=0;edgeStyle=orthogonalEdgeStyle;curved=1;exitX=0;exitY=0.5;exitDx=0;exitDy=0;" edge="1" parent="1" source="EJihXNTQah2JkNm5jHnU-55" target="EJihXNTQah2JkNm5jHnU-6">
          <mxGeometry width="50" height="50" relative="1" as="geometry">
            <mxPoint x="810" y="380" as="sourcePoint" />
            <mxPoint x="810" y="310" as="targetPoint" />
          </mxGeometry>
        </mxCell>
        <mxCell id="EJihXNTQah2JkNm5jHnU-57" value="" style="endArrow=none;html=1;rounded=0;entryX=0.5;entryY=0;entryDx=0;entryDy=0;edgeStyle=orthogonalEdgeStyle;curved=1;exitX=1;exitY=0.5;exitDx=0;exitDy=0;" edge="1" parent="1" source="EJihXNTQah2JkNm5jHnU-55" target="EJihXNTQah2JkNm5jHnU-12">
          <mxGeometry width="50" height="50" relative="1" as="geometry">
            <mxPoint x="750" y="410" as="sourcePoint" />
            <mxPoint x="610" y="520" as="targetPoint" />
          </mxGeometry>
        </mxCell>
        <mxCell id="EJihXNTQah2JkNm5jHnU-59" value="eth0" style="rounded=0;whiteSpace=wrap;html=1;" vertex="1" parent="1">
          <mxGeometry x="390" y="520" width="60" height="20" as="geometry" />
        </mxCell>
        <mxCell id="EJihXNTQah2JkNm5jHnU-60" value="eth0" style="rounded=0;whiteSpace=wrap;html=1;" vertex="1" parent="1">
          <mxGeometry x="780" y="520" width="60" height="20" as="geometry" />
        </mxCell>
        <mxCell id="EJihXNTQah2JkNm5jHnU-61" value="veth1" style="rounded=0;whiteSpace=wrap;html=1;" vertex="1" parent="1">
          <mxGeometry x="520" y="390" width="60" height="20" as="geometry" />
        </mxCell>
        <mxCell id="EJihXNTQah2JkNm5jHnU-63" value="veth2" style="rounded=0;whiteSpace=wrap;html=1;" vertex="1" parent="1">
          <mxGeometry x="640" y="390" width="60" height="20" as="geometry" />
        </mxCell>
        <mxCell id="EJihXNTQah2JkNm5jHnU-91" value="eth0" style="rounded=0;whiteSpace=wrap;html=1;" vertex="1" parent="1">
          <mxGeometry x="570" y="600" width="60" height="20" as="geometry" />
        </mxCell>
        <mxCell id="EJihXNTQah2JkNm5jHnU-93" value="宿主机namespace" style="rounded=0;whiteSpace=wrap;html=1;fillColor=none;dashed=1;dashPattern=8 8;strokeColor=#FF8000;verticalAlign=top;fontColor=#FF9933;align=left;" vertex="1" parent="1">
          <mxGeometry x="310" y="360" width="610" height="110" as="geometry" />
        </mxCell>
        <mxCell id="EJihXNTQah2JkNm5jHnU-104" value="" style="endArrow=classic;html=1;rounded=0;edgeStyle=orthogonalEdgeStyle;curved=1;entryX=0.5;entryY=0;entryDx=0;entryDy=0;dashed=1;strokeColor=#FF3333;" edge="1" parent="1" source="EJihXNTQah2JkNm5jHnU-6" target="EJihXNTQah2JkNm5jHnU-60">
          <mxGeometry width="50" height="50" relative="1" as="geometry">
            <mxPoint x="370" y="280" as="sourcePoint" />
            <mxPoint x="420" y="230" as="targetPoint" />
            <Array as="points">
              <mxPoint x="420" y="420" />
              <mxPoint x="810" y="420" />
            </Array>
          </mxGeometry>
        </mxCell>
      </root>
    </mxGraphModel>
  </diagram>
  <diagram id="W0poOLapsLCo662jpKfR" name="跨主机">
    <mxGraphModel dx="1271" dy="840" grid="1" gridSize="10" guides="1" tooltips="1" connect="1" arrows="1" fold="1" page="1" pageScale="1" pageWidth="3300" pageHeight="4681" math="0" shadow="0">
      <root>
        <mxCell id="0" />
        <mxCell id="1" parent="0" />
        <mxCell id="_VWDWAiIG5PbwwfTeg3M-1" value="主机1" style="rounded=1;whiteSpace=wrap;html=1;verticalAlign=top;" vertex="1" parent="1">
          <mxGeometry x="290" y="320" width="500" height="350" as="geometry" />
        </mxCell>
        <mxCell id="_VWDWAiIG5PbwwfTeg3M-15" value="宿主机namespace" style="rounded=0;whiteSpace=wrap;html=1;fillColor=none;dashed=1;dashPattern=8 8;strokeColor=#FF8000;verticalAlign=top;fontColor=#FF9933;align=left;" vertex="1" parent="1">
          <mxGeometry x="310" y="360" width="460" height="110" as="geometry" />
        </mxCell>
        <mxCell id="_VWDWAiIG5PbwwfTeg3M-3" value="容器 network namespace" style="rounded=0;whiteSpace=wrap;html=1;fillColor=none;dashed=1;dashPattern=8 8;strokeColor=#3333FF;verticalAlign=top;align=left;fontColor=#3333FF;" vertex="1" parent="1">
          <mxGeometry x="435" y="490" width="230" height="120" as="geometry" />
        </mxCell>
        <mxCell id="_VWDWAiIG5PbwwfTeg3M-4" value="虚拟交换机&lt;br&gt;网桥&lt;br&gt;由docker创建" style="text;html=1;strokeColor=none;fillColor=none;align=left;verticalAlign=middle;whiteSpace=wrap;rounded=0;fontSize=10;labelBorderColor=none;" vertex="1" parent="1">
          <mxGeometry x="660" y="435" width="100" height="30" as="geometry" />
        </mxCell>
        <mxCell id="_VWDWAiIG5PbwwfTeg3M-5" value="container1&lt;br&gt;100.96.1.2" style="rounded=1;whiteSpace=wrap;html=1;verticalAlign=middle;" vertex="1" parent="1">
          <mxGeometry x="455" y="520" width="180" height="80" as="geometry" />
        </mxCell>
        <mxCell id="_VWDWAiIG5PbwwfTeg3M-7" value="docker0(100.96.1.1/24)" style="rounded=0;whiteSpace=wrap;html=1;" vertex="1" parent="1">
          <mxGeometry x="460" y="375" width="180" height="60" as="geometry" />
        </mxCell>
        <mxCell id="_VWDWAiIG5PbwwfTeg3M-8" value="" style="endArrow=none;html=1;rounded=0;entryX=0.5;entryY=0;entryDx=0;entryDy=0;edgeStyle=orthogonalEdgeStyle;curved=1;exitX=0.5;exitY=1;exitDx=0;exitDy=0;" edge="1" parent="1" source="_VWDWAiIG5PbwwfTeg3M-7" target="_VWDWAiIG5PbwwfTeg3M-5">
          <mxGeometry width="50" height="50" relative="1" as="geometry">
            <mxPoint x="810" y="380" as="sourcePoint" />
            <mxPoint x="810" y="310" as="targetPoint" />
          </mxGeometry>
        </mxCell>
        <mxCell id="_VWDWAiIG5PbwwfTeg3M-10" value="eth0" style="rounded=0;whiteSpace=wrap;html=1;" vertex="1" parent="1">
          <mxGeometry x="515" y="520" width="60" height="20" as="geometry" />
        </mxCell>
        <mxCell id="_VWDWAiIG5PbwwfTeg3M-14" value="eth0" style="rounded=0;whiteSpace=wrap;html=1;" vertex="1" parent="1">
          <mxGeometry x="510" y="650" width="60" height="20" as="geometry" />
        </mxCell>
        <mxCell id="_VWDWAiIG5PbwwfTeg3M-27" value="veth0" style="rounded=0;whiteSpace=wrap;html=1;" vertex="1" parent="1">
          <mxGeometry x="520" y="415" width="60" height="20" as="geometry" />
        </mxCell>
        <mxCell id="_VWDWAiIG5PbwwfTeg3M-38" value="主机2" style="rounded=1;whiteSpace=wrap;html=1;verticalAlign=top;" vertex="1" parent="1">
          <mxGeometry x="830" y="320" width="500" height="350" as="geometry" />
        </mxCell>
        <mxCell id="_VWDWAiIG5PbwwfTeg3M-39" value="宿主机namespace" style="rounded=0;whiteSpace=wrap;html=1;fillColor=none;dashed=1;dashPattern=8 8;strokeColor=#FF8000;verticalAlign=top;fontColor=#FF9933;align=left;" vertex="1" parent="1">
          <mxGeometry x="850" y="360" width="460" height="110" as="geometry" />
        </mxCell>
        <mxCell id="_VWDWAiIG5PbwwfTeg3M-40" value="容器 network namespace" style="rounded=0;whiteSpace=wrap;html=1;fillColor=none;dashed=1;dashPattern=8 8;strokeColor=#3333FF;verticalAlign=top;align=left;fontColor=#3333FF;" vertex="1" parent="1">
          <mxGeometry x="975" y="490" width="230" height="120" as="geometry" />
        </mxCell>
        <mxCell id="_VWDWAiIG5PbwwfTeg3M-41" value="虚拟交换机&lt;br&gt;网桥&lt;br&gt;由docker创建" style="text;html=1;strokeColor=none;fillColor=none;align=left;verticalAlign=middle;whiteSpace=wrap;rounded=0;fontSize=10;labelBorderColor=none;" vertex="1" parent="1">
          <mxGeometry x="1200" y="435" width="100" height="30" as="geometry" />
        </mxCell>
        <mxCell id="_VWDWAiIG5PbwwfTeg3M-42" value="container2&lt;br&gt;100.96.2.3" style="rounded=1;whiteSpace=wrap;html=1;verticalAlign=middle;" vertex="1" parent="1">
          <mxGeometry x="995" y="520" width="180" height="80" as="geometry" />
        </mxCell>
        <mxCell id="_VWDWAiIG5PbwwfTeg3M-43" value="docker0(100.96.2.1/24)" style="rounded=0;whiteSpace=wrap;html=1;" vertex="1" parent="1">
          <mxGeometry x="990" y="375" width="180" height="60" as="geometry" />
        </mxCell>
        <mxCell id="_VWDWAiIG5PbwwfTeg3M-44" value="" style="endArrow=none;html=1;rounded=0;entryX=0.5;entryY=0;entryDx=0;entryDy=0;edgeStyle=orthogonalEdgeStyle;curved=1;exitX=0.5;exitY=1;exitDx=0;exitDy=0;" edge="1" parent="1" source="_VWDWAiIG5PbwwfTeg3M-43" target="_VWDWAiIG5PbwwfTeg3M-42">
          <mxGeometry width="50" height="50" relative="1" as="geometry">
            <mxPoint x="1350" y="380" as="sourcePoint" />
            <mxPoint x="1350" y="310" as="targetPoint" />
          </mxGeometry>
        </mxCell>
        <mxCell id="_VWDWAiIG5PbwwfTeg3M-45" value="eth0" style="rounded=0;whiteSpace=wrap;html=1;" vertex="1" parent="1">
          <mxGeometry x="1055" y="520" width="60" height="20" as="geometry" />
        </mxCell>
        <mxCell id="_VWDWAiIG5PbwwfTeg3M-46" value="eth0" style="rounded=0;whiteSpace=wrap;html=1;" vertex="1" parent="1">
          <mxGeometry x="1050" y="650" width="60" height="20" as="geometry" />
        </mxCell>
        <mxCell id="_VWDWAiIG5PbwwfTeg3M-47" value="veth0" style="rounded=0;whiteSpace=wrap;html=1;" vertex="1" parent="1">
          <mxGeometry x="1050" y="415" width="60" height="20" as="geometry" />
        </mxCell>
      </root>
    </mxGraphModel>
  </diagram>
</mxfile>
